<?xml version="1.0" encoding="UTF-8" standalone="no"?><!DOCTYPE svg PUBLIC "-//W3C//DTD SVG 1.1//EN" "http://www.w3.org/Graphics/SVG/1.1/DTD/svg11.dtd"><!-- Generated by graphviz version 2.40.1 (20161225.0304)
 --><!-- Title: ControlFlowGraph Pages: 1 --><svg xmlns="http://www.w3.org/2000/svg" xmlns:xlink="http://www.w3.org/1999/xlink" width="1200pt" height="742pt" viewBox="0.00 0.00 1200.30 742.00">
<g id="graph0" class="graph" transform="scale(1 1) rotate(0) translate(4 738)">
<title>ControlFlowGraph</title>
<polygon fill="#ffffff" stroke="transparent" points="-4,4 -4,-738 1196.2979,-738 1196.2979,4 -4,4"/>
<!-- start -->
<g id="node1" class="node">
<title>start</title>
<polygon fill="none" stroke="#000000" points="859.4921,-734 805.4921,-734 805.4921,-698 859.4921,-698 859.4921,-734"/>
<text text-anchor="middle" x="832.4921" y="-711.8" font-family="Times,serif" font-size="14.00" fill="#000000">Start</text>
</g>
<!-- mandatoryInfoMissing -->
<g id="node2" class="node">
<title>mandatoryInfoMissing</title>
<polygon fill="none" stroke="#000000" points="1116.2981,-591.2 954.6862,-591.2 954.6862,-555.2 1116.2981,-555.2 1116.2981,-591.2"/>
<text text-anchor="middle" x="1035.4921" y="-569" font-family="Times,serif" font-size="14.00" fill="#000000">Throw RuntimeException</text>
</g>
<!-- start&#45;&gt;mandatoryInfoMissing -->
<g id="edge1" class="edge">
<title>start-&gt;mandatoryInfoMissing</title>
<path fill="none" stroke="#000000" d="M859.7581,-708.0786C878.3015,-701.9936 902.9259,-692.5097 922.4921,-680 958.0455,-657.269 992.3149,-622.4738 1013.6106,-598.8249"/>
<polygon fill="#000000" stroke="#000000" points="1016.299,-601.0686 1020.3184,-591.2658 1011.0632,-596.4225 1016.299,-601.0686"/>
<text text-anchor="middle" x="1033.5342" y="-667.4" font-family="Times,serif" font-size="14.00" fill="#000000">Mandatory information missing</text>
</g>
<!-- checkUsername -->
<g id="node3" class="node">
<title>checkUsername</title>
<polygon fill="none" stroke="#000000" points="557.4921,-645.2 445.6335,-627.2 557.4921,-609.2 669.3508,-627.2 557.4921,-645.2"/>
<text text-anchor="middle" x="557.4921" y="-623" font-family="Times,serif" font-size="14.00" fill="#000000">Is username null?</text>
</g>
<!-- start&#45;&gt;checkUsername -->
<g id="edge3" class="edge">
<title>start-&gt;checkUsername</title>
<path fill="none" stroke="#000000" d="M805.3715,-707.2425C758.6171,-692.1451 662.305,-661.045 604.4629,-642.3673"/>
<polygon fill="#000000" stroke="#000000" points="605.4191,-638.9982 594.8274,-639.2559 603.2681,-645.6595 605.4191,-638.9982"/>
<text text-anchor="middle" x="819.2295" y="-667.4" font-family="Times,serif" font-size="14.00" fill="#000000">Mandatory information not missing</text>
</g>
<!-- end -->
<g id="node15" class="node">
<title>end</title>
<polygon fill="none" stroke="#000000" points="564.4921,-36 510.4921,-36 510.4921,0 564.4921,0 564.4921,-36"/>
<text text-anchor="middle" x="537.4921" y="-13.8" font-family="Times,serif" font-size="14.00" fill="#000000">End</text>
</g>
<!-- mandatoryInfoMissing&#45;&gt;end -->
<g id="edge2" class="edge">
<title>mandatoryInfoMissing-&gt;end</title>
<path fill="none" stroke="#000000" d="M1039.0332,-554.9062C1042.2488,-536.6819 1046.4921,-507.8656 1046.4921,-482.7 1046.4921,-482.7 1046.4921,-482.7 1046.4921,-106.8 1046.4921,-58.9027 692.1945,-29.1167 574.7843,-20.561"/>
<polygon fill="#000000" stroke="#000000" points="574.724,-17.0477 564.4988,-19.8219 574.2222,-24.0297 574.724,-17.0477"/>
<text text-anchor="middle" x="1119.395" y="-324.6" font-family="Times,serif" font-size="14.00" fill="#000000">Throw RuntimeException</text>
</g>
<!-- setUsername -->
<g id="node4" class="node">
<title>setUsername</title>
<polygon fill="none" stroke="#000000" points="603.0195,-537.2 511.9647,-537.2 511.9647,-501.2 603.0195,-501.2 603.0195,-537.2"/>
<text text-anchor="middle" x="557.4921" y="-515" font-family="Times,serif" font-size="14.00" fill="#000000">Set username</text>
</g>
<!-- checkUsername&#45;&gt;setUsername -->
<g id="edge4" class="edge">
<title>checkUsername-&gt;setUsername</title>
<path fill="none" stroke="#000000" d="M557.4921,-608.8793C557.4921,-592.021 557.4921,-566.7651 557.4921,-547.347"/>
<polygon fill="#000000" stroke="#000000" points="560.9922,-547.2501 557.4921,-537.2502 553.9922,-547.2502 560.9922,-547.2501"/>
<text text-anchor="middle" x="604.9234" y="-569" font-family="Times,serif" font-size="14.00" fill="#000000">Username is null</text>
</g>
<!-- initializeSame -->
<g id="node5" class="node">
<title>initializeSame</title>
<polygon fill="none" stroke="#000000" points="443.7259,-464.2 311.2583,-464.2 311.2583,-428.2 443.7259,-428.2 443.7259,-464.2"/>
<text text-anchor="middle" x="377.4921" y="-442" font-family="Times,serif" font-size="14.00" fill="#000000">Initialize 'same' to 1</text>
</g>
<!-- checkUsername&#45;&gt;initializeSame -->
<g id="edge5" class="edge">
<title>checkUsername-&gt;initializeSame</title>
<path fill="none" stroke="#000000" d="M512.1096,-616.4089C471.9206,-604.2958 415.2627,-580.419 386.2389,-537.2 373.9203,-518.8565 372.4132,-493.5515 373.6016,-474.2817"/>
<polygon fill="#000000" stroke="#000000" points="377.0915,-474.5496 374.4877,-464.2797 370.1188,-473.9318 377.0915,-474.5496"/>
<text text-anchor="middle" x="444.6187" y="-515" font-family="Times,serif" font-size="14.00" fill="#000000">Username is not null</text>
</g>
<!-- setUsername&#45;&gt;initializeSame -->
<g id="edge6" class="edge">
<title>setUsername-&gt;initializeSame</title>
<path fill="none" stroke="#000000" d="M512.9977,-501.1551C488.334,-491.1525 457.4829,-478.6407 431.4508,-468.0833"/>
<polygon fill="#000000" stroke="#000000" points="432.6808,-464.8052 422.0985,-464.2904 430.05,-471.2921 432.6808,-464.8052"/>
</g>
<!-- checkEmail -->
<g id="node6" class="node">
<title>checkEmail</title>
<polygon fill="none" stroke="#000000" points="315.4921,-391.2 124.0156,-373.2 315.4921,-355.2 506.9687,-373.2 315.4921,-391.2"/>
<text text-anchor="middle" x="315.4921" y="-369" font-family="Times,serif" font-size="14.00" fill="#000000">Does email contain '@' and '.'?</text>
</g>
<!-- initializeSame&#45;&gt;checkEmail -->
<g id="edge7" class="edge">
<title>initializeSame-&gt;checkEmail</title>
<path fill="none" stroke="#000000" d="M362.1663,-428.1551C354.3568,-418.96 344.7463,-407.6445 336.2799,-397.676"/>
<polygon fill="#000000" stroke="#000000" points="338.9328,-395.3927 329.7916,-390.0365 333.5974,-399.9242 338.9328,-395.3927"/>
</g>
<!-- loop -->
<g id="node7" class="node">
<title>loop</title>
<polygon fill="none" stroke="#000000" points="138.4921,-302.4 .0079,-284.4 138.4921,-266.4 276.9764,-284.4 138.4921,-302.4"/>
<text text-anchor="middle" x="138.4921" y="-280.2" font-family="Times,serif" font-size="14.00" fill="#000000">Loop through allUsers</text>
</g>
<!-- checkEmail&#45;&gt;loop -->
<g id="edge9" class="edge">
<title>checkEmail-&gt;loop</title>
<path fill="none" stroke="#000000" d="M231.915,-362.9407C198.053,-357.1598 164.1147,-348.7409 152.1485,-337.2 145.4868,-330.775 141.9213,-321.5584 140.0589,-312.6188"/>
<polygon fill="#000000" stroke="#000000" points="143.4802,-311.8247 138.5714,-302.4357 136.5537,-312.8366 143.4802,-311.8247"/>
<text text-anchor="middle" x="227.1639" y="-324.6" font-family="Times,serif" font-size="14.00" fill="#000000">Email contains '@' and '.'</text>
</g>
<!-- returnSameZero -->
<g id="node14" class="node">
<title>returnSameZero</title>
<polygon fill="none" stroke="#000000" points="458.4702,-124.8 332.514,-124.8 332.514,-88.8 458.4702,-88.8 458.4702,-124.8"/>
<text text-anchor="middle" x="395.4921" y="-102.6" font-family="Times,serif" font-size="14.00" fill="#000000">Return (same == 0)</text>
</g>
<!-- checkEmail&#45;&gt;returnSameZero -->
<g id="edge8" class="edge">
<title>checkEmail-&gt;returnSameZero</title>
<path fill="none" stroke="#000000" d="M313.7384,-355.3225C310.9908,-319.8259 308.4057,-238.6174 334.4921,-177.6 341.781,-160.551 354.7184,-144.6145 366.8088,-132.1948"/>
<polygon fill="#000000" stroke="#000000" points="369.5056,-134.451 374.1692,-124.9378 364.5909,-129.4664 369.5056,-134.451"/>
<text text-anchor="middle" x="416.7165" y="-235.8" font-family="Times,serif" font-size="14.00" fill="#000000">Email does not contain '@' and '.'</text>
</g>
<!-- incrementSame -->
<g id="node8" class="node">
<title>incrementSame</title>
<polygon fill="none" stroke="#000000" points="287.8244,-213.6 173.1599,-213.6 173.1599,-177.6 287.8244,-177.6 287.8244,-213.6"/>
<text text-anchor="middle" x="230.4921" y="-191.4" font-family="Times,serif" font-size="14.00" fill="#000000">Increment 'same'</text>
</g>
<!-- loop&#45;&gt;incrementSame -->
<g id="edge10" class="edge">
<title>loop-&gt;incrementSame</title>
<path fill="none" stroke="#000000" d="M124.0005,-268.1009C116.0307,-257.0868 109.2401,-242.6034 117.2873,-231.6 120.5497,-227.1392 140.9261,-220.1027 163.5134,-213.4294"/>
<polygon fill="#000000" stroke="#000000" points="164.6534,-216.7432 173.2856,-210.6003 162.7067,-210.0193 164.6534,-216.7432"/>
<text text-anchor="middle" x="173.0945" y="-235.8" font-family="Times,serif" font-size="14.00" fill="#000000">Loop condition true</text>
</g>
<!-- checkSameZero -->
<g id="node9" class="node">
<title>checkSameZero</title>
<polygon fill="none" stroke="#000000" points="185.4921,-124.8 56.2589,-106.8 185.4921,-88.8 314.7254,-106.8 185.4921,-124.8"/>
<text text-anchor="middle" x="185.4921" y="-102.6" font-family="Times,serif" font-size="14.00" fill="#000000">Is 'same' equal to 0?</text>
</g>
<!-- loop&#45;&gt;checkSameZero -->
<g id="edge11" class="edge">
<title>loop-&gt;checkSameZero</title>
<path fill="none" stroke="#000000" d="M110.5744,-269.9697C76.6707,-250.4315 26.5823,-213.8253 48.6281,-177.6 65.809,-149.3687 98.2789,-131.8972 127.2813,-121.3751"/>
<polygon fill="#000000" stroke="#000000" points="128.6266,-124.6142 136.9569,-118.0676 126.3624,-117.9905 128.6266,-124.6142"/>
<text text-anchor="middle" x="107.4241" y="-191.4" font-family="Times,serif" font-size="14.00" fill="#000000">Loop condition false</text>
</g>
<!-- incrementSame&#45;&gt;loop -->
<g id="edge12" class="edge">
<title>incrementSame-&gt;loop</title>
<path fill="none" stroke="#000000" d="M234.4499,-213.7972C235.7829,-224.7749 235.4692,-238.5035 228.4921,-248.4 222.1075,-257.4563 213.0533,-264.2354 203.1253,-269.3098"/>
<polygon fill="#000000" stroke="#000000" points="201.4919,-266.2068 193.8135,-273.507 204.3684,-272.5885 201.4919,-266.2068"/>
</g>
<!-- incrementSame&#45;&gt;checkSameZero -->
<g id="edge13" class="edge">
<title>incrementSame-&gt;checkSameZero</title>
<path fill="none" stroke="#000000" d="M221.1681,-177.2006C214.6839,-164.4051 205.9456,-147.1614 198.7401,-132.9426"/>
<polygon fill="#000000" stroke="#000000" points="201.6855,-131.0119 194.0431,-123.674 195.4415,-134.1762 201.6855,-131.0119"/>
</g>
<!-- invalidCredentials -->
<g id="node10" class="node">
<title>invalidCredentials</title>
<polygon fill="none" stroke="#000000" points="245.2841,-36 125.7002,-36 125.7002,0 245.2841,0 245.2841,-36"/>
<text text-anchor="middle" x="185.4921" y="-13.8" font-family="Times,serif" font-size="14.00" fill="#000000">Invalid credentials</text>
</g>
<!-- checkSameZero&#45;&gt;invalidCredentials -->
<g id="edge14" class="edge">
<title>checkSameZero-&gt;invalidCredentials</title>
<path fill="none" stroke="#000000" d="M185.4921,-88.4006C185.4921,-76.2949 185.4921,-60.2076 185.4921,-46.4674"/>
<polygon fill="#000000" stroke="#000000" points="188.9922,-46.072 185.4921,-36.072 181.9922,-46.0721 188.9922,-46.072"/>
<text text-anchor="middle" x="251.003" y="-58.2" font-family="Times,serif" font-size="14.00" fill="#000000">'same' is not equal to 0</text>
</g>
<!-- checkSameZero&#45;&gt;end -->
<g id="edge15" class="edge">
<title>checkSameZero-&gt;end</title>
<path fill="none" stroke="#000000" d="M232.3024,-95.3022C258.4039,-88.6449 291.4163,-79.8169 320.4921,-70.8 341.8274,-64.1836 346.3624,-60.0651 367.8609,-54 412.8941,-41.2953 465.7709,-30.7478 500.3686,-24.421"/>
<polygon fill="#000000" stroke="#000000" points="501.2702,-27.8149 510.4901,-22.5953 500.0276,-20.9261 501.2702,-27.8149"/>
<text text-anchor="middle" x="423.3077" y="-58.2" font-family="Times,serif" font-size="14.00" fill="#000000">'same' is equal to 0</text>
</g>
<!-- checkPasswordCriteria -->
<g id="node11" class="node">
<title>checkPasswordCriteria</title>
<polygon fill="none" stroke="#000000" points="800.4921,-302.4 652.8577,-284.4 800.4921,-266.4 948.1266,-284.4 800.4921,-302.4"/>
<text text-anchor="middle" x="800.4921" y="-280.2" font-family="Times,serif" font-size="14.00" fill="#000000">Check password criteria</text>
</g>
<!-- checkSpecialCharacters -->
<g id="node12" class="node">
<title>checkSpecialCharacters</title>
<polygon fill="none" stroke="#000000" points="591.4921,-213.6 343.1495,-195.6 591.4921,-177.6 839.8347,-195.6 591.4921,-213.6"/>
<text text-anchor="middle" x="591.4921" y="-191.4" font-family="Times,serif" font-size="14.00" fill="#000000">Does password contain special characters?</text>
</g>
<!-- checkPasswordCriteria&#45;&gt;checkSpecialCharacters -->
<g id="edge17" class="edge">
<title>checkPasswordCriteria-&gt;checkSpecialCharacters</title>
<path fill="none" stroke="#000000" d="M767.3755,-270.3294C732.3592,-255.4517 676.8597,-231.871 637.5806,-215.1821"/>
<polygon fill="#000000" stroke="#000000" points="638.5386,-211.7864 627.9662,-211.0971 635.8013,-218.229 638.5386,-211.7864"/>
<text text-anchor="middle" x="775.1352" y="-235.8" font-family="Times,serif" font-size="14.00" fill="#000000">Password criteria met</text>
</g>
<!-- returnFalse -->
<g id="node13" class="node">
<title>returnFalse</title>
<polygon fill="none" stroke="#000000" points="650.5195,-124.8 566.4647,-124.8 566.4647,-88.8 650.5195,-88.8 650.5195,-124.8"/>
<text text-anchor="middle" x="608.4921" y="-102.6" font-family="Times,serif" font-size="14.00" fill="#000000">Return false</text>
</g>
<!-- checkPasswordCriteria&#45;&gt;returnFalse -->
<g id="edge16" class="edge">
<title>checkPasswordCriteria-&gt;returnFalse</title>
<path fill="none" stroke="#000000" d="M821.8295,-268.686C828.3301,-262.9509 834.95,-255.9907 839.4921,-248.4 863.9387,-207.5453 888.6561,-178.7937 857.4921,-142.8 844.8127,-128.1556 730.143,-116.5205 660.9183,-110.756"/>
<polygon fill="#000000" stroke="#000000" points="660.8887,-107.242 650.6367,-109.9151 660.318,-114.2187 660.8887,-107.242"/>
<text text-anchor="middle" x="942.8305" y="-191.4" font-family="Times,serif" font-size="14.00" fill="#000000">Password criteria not met</text>
</g>
<!-- checkSpecialCharacters&#45;&gt;returnFalse -->
<g id="edge19" class="edge">
<title>checkSpecialCharacters-&gt;returnFalse</title>
<path fill="none" stroke="#000000" d="M594.9323,-177.63C597.2672,-165.4338 600.4029,-149.0543 603.0708,-135.1187"/>
<polygon fill="#000000" stroke="#000000" points="606.5559,-135.5278 604.9987,-125.0481 599.6808,-134.2116 606.5559,-135.5278"/>
<text text-anchor="middle" x="727.2485" y="-147" font-family="Times,serif" font-size="14.00" fill="#000000">Password does not contain special characters</text>
</g>
<!-- checkSpecialCharacters&#45;&gt;returnSameZero -->
<g id="edge18" class="edge">
<title>checkSpecialCharacters-&gt;returnSameZero</title>
<path fill="none" stroke="#000000" d="M465.8874,-186.6806C430.3872,-181.397 398.3194,-172.9865 387.0845,-159.6 381.2749,-152.6778 381.1003,-143.384 383.1148,-134.5237"/>
<polygon fill="#000000" stroke="#000000" points="386.4945,-135.4426 386.1357,-124.8538 379.8129,-133.3552 386.4945,-135.4426"/>
<text text-anchor="middle" x="490.6959" y="-147" font-family="Times,serif" font-size="14.00" fill="#000000">Password contains special characters</text>
</g>
<!-- returnFalse&#45;&gt;end -->
<g id="edge21" class="edge">
<title>returnFalse-&gt;end</title>
<path fill="none" stroke="#000000" d="M593.7809,-88.4006C583.5268,-75.5757 569.6998,-58.2822 558.3162,-44.0448"/>
<polygon fill="#000000" stroke="#000000" points="560.9201,-41.6967 551.9416,-36.072 555.4528,-46.0681 560.9201,-41.6967"/>
</g>
<!-- returnSameZero&#45;&gt;end -->
<g id="edge20" class="edge">
<title>returnSameZero-&gt;end</title>
<path fill="none" stroke="#000000" d="M447.0516,-88.7665C458.7866,-83.7079 470.9057,-77.6788 481.4921,-70.8 493.2509,-63.1595 504.7798,-52.9101 514.2912,-43.4748"/>
<polygon fill="#000000" stroke="#000000" points="516.9657,-45.7458 521.4524,-36.1479 511.9596,-40.853 516.9657,-45.7458"/>
</g>
</g>
</svg>